<?xml version="1.0" encoding="utf-8"?>
<!-- Generator: Adobe Illustrator 19.0.0, SVG Export Plug-In . SVG Version: 6.00 Build 0)  -->
<svg version="1.1" id="Layer_1" xmlns="http://www.w3.org/2000/svg" xmlns:xlink="http://www.w3.org/1999/xlink" x="0px" y="0px"
	 viewBox="0 0 82.7 82.7" style="enable-background:new 0 0 82.7 82.7;" xml:space="preserve">
<style type="text/css">
	.st0{fill:#FFFFFF;}
</style>
<path id="XMLID_17_" class="st0" d="M41.3,0C18.5,0,0,18.5,0,41.3s18.5,41.3,41.3,41.3c22.8,0,41.3-18.5,41.3-41.3S64.2,0,41.3,0z
	 M41.3,77.3c-19.9,0-36-16.1-36-36s16.1-36,36-36c19.9,0,36,16.1,36,36S61.2,77.3,41.3,77.3z"/>
<path id="XMLID_9_" class="st0" d="M35.5,64.6h9.3V41.3h6.5l0.7-7.8h-7.2c0,0,0-2.9,0-4.4c0-1.8,0.4-2.6,2.1-2.6c1.4,0,5,0,5,0v-8.1
	c0,0-5.3,0-6.4,0c-6.9,0-10,3-10,8.9c0,5.1,0,6.2,0,6.2h-4.8v7.9h4.8V64.6z"/>
</svg>
