<?xml version="1.0" encoding="utf-8"?>
<!-- Generator: Adobe Illustrator 19.0.0, SVG Export Plug-In . SVG Version: 6.00 Build 0)  -->
<svg version="1.1" id="Layer_1" xmlns="http://www.w3.org/2000/svg" xmlns:xlink="http://www.w3.org/1999/xlink" x="0px" y="0px"
	 viewBox="0 0 432.6 152.6" style="enable-background:new 0 0 432.6 152.6;" xml:space="preserve">
<g id="XMLID_15_">
	<path id="XMLID_16_" d="M32.6,50.7l0.6-2.1h23.2l-3.1,9.5h0.3c0.7-1.1,1.6-2.3,2.9-3.6c1.2-1.3,2.7-2.6,4.3-3.7
		c1.7-1.2,3.5-2.2,5.5-2.9c2-0.8,4.2-1.2,6.5-1.2c3.6,0,6.8,0.7,9.5,2.1c2.7,1.4,4.9,3.3,6.7,5.7c1.8,2.3,3.1,5.1,4,8.2
		c0.9,3.1,1.3,6.4,1.3,9.8c0,4.1-1,8.5-2.9,13.3c-2,4.7-4.7,9.2-8.2,13.2c-3.5,4.1-7.7,7.5-12.6,10.2s-10.2,4.1-15.9,4.1
		c-3.8,0-7.1-1.2-9.8-3.7c-2.7-2.5-4.5-5.8-5.1-10.1h-0.3l-17.9,51h12.3l-0.6,2.1H0l0.6-2.1h10.6l35.1-99.8H32.6z M42.1,101.5
		c0.6,1.8,1.4,3.5,2.6,4.9c1.1,1.5,2.5,2.7,4.1,3.6c1.6,0.9,3.6,1.4,6.1,1.4c2.7,0,5.4-0.8,7.9-2.4s4.8-3.7,7-6.3
		c2.2-2.6,4.1-5.6,5.9-9c1.8-3.4,3.3-6.8,4.5-10.3c1.2-3.5,2.2-6.9,2.9-10.3c0.7-3.4,1-6.4,1-9c0-4.2-0.8-7.8-2.5-10.9
		c-1.7-3-4.7-4.6-9-4.6c-2.5,0-4.9,0.5-7,1.6c-2.1,1.1-4,2.4-5.7,4c-1.7,1.6-3.1,3.2-4.4,4.8c-1.3,1.6-2.3,3-3.2,4.2L40.7,96
		C41.1,97.9,41.6,99.7,42.1,101.5z"/>
	<path id="XMLID_19_" d="M121,98.4c-0.5,1.5-1,3-1.5,4.5c-0.5,1.5-0.7,3-0.7,4.3c0,1.2,0.3,2.2,1,3c0.7,0.8,1.7,1.2,3.1,1.2
		c1.6,0,3.1-0.5,4.6-1.6c1.5-1.1,2.9-2.3,4.2-3.7c1.3-1.4,2.3-2.9,3.2-4.3c0.9-1.5,1.5-2.6,1.9-3.5l1.8,0.7c-0.4,0.8-1,2-1.8,3.6
		c-0.8,1.6-2,3.2-3.5,4.8s-3.3,3-5.4,4.2c-2.2,1.2-4.7,1.8-7.6,1.8c-3.2,0-5.8-0.7-7.7-2c-1.9-1.3-2.9-3.5-2.9-6.7
		c0-1.7,0.3-3.5,0.9-5.5c0.6-2,1.2-3.8,1.8-5.5l32.7-91.6H132l0.6-2.1h23.3L121,98.4z"/>
	<path id="XMLID_21_" d="M202.4,100.4c-0.6,2.3-1,4.5-1,6.3c0,2.5,1.2,3.8,3.7,3.8c2,0,3.7-0.6,5.3-1.7c1.6-1.1,2.9-2.4,4-3.8
		c1.1-1.4,2.1-2.8,2.8-4.3c0.7-1.4,1.2-2.4,1.5-3l1.9,1c-0.5,1.1-1.2,2.4-2.2,4.1c-1,1.7-2.3,3.3-3.8,4.8c-1.6,1.5-3.4,2.8-5.4,4
		s-4.5,1.7-7.2,1.7c-6.5,0-9.7-2.9-9.7-8.8c0-0.7,0.1-1.9,0.4-3.6c0.3-1.7,0.7-3.3,1.2-4.6h-0.3c-1.4,1.7-2.9,3.5-4.7,5.5
		c-1.8,2-3.7,3.9-5.9,5.6c-2.2,1.7-4.6,3.1-7.3,4.3c-2.6,1.1-5.6,1.7-8.8,1.7c-2.1,0-4-0.4-5.9-1.1c-1.9-0.7-3.6-1.9-5.1-3.4
		c-1.5-1.5-2.6-3.5-3.5-5.8c-0.8-2.3-1.2-5.1-1.2-8.4c0-3.9,0.8-7.8,2.3-11.7c1.6-3.9,3.6-7.7,6.1-11.2c2.5-3.6,5.4-6.9,8.7-9.9
		c3.3-3,6.6-5.7,10-7.9c3.4-2.3,6.7-4,10-5.3c3.3-1.3,6.2-1.9,8.7-1.9c2.9,0,5.4,0.8,7.5,2.5c2.1,1.7,3.1,3.9,3.1,6.6h0.3l2.5-7.2
		h10.3l-16,44.5C203.8,95.6,203,98.1,202.4,100.4z M205.8,61.2c0.3-1.3,0.5-2.5,0.5-3.5c0-0.9-0.1-1.8-0.4-2.9c-0.2-1-0.7-2-1.3-2.9
		c-0.6-0.9-1.5-1.6-2.6-2.3c-1.1-0.6-2.5-1-4.3-1c-3.2,0-6.4,0.9-9.5,2.7c-3.1,1.8-6,4.2-8.7,7.1c-2.7,2.9-5.2,6.3-7.4,10.1
		c-2.3,3.8-4.2,7.6-5.8,11.5c-1.6,3.9-2.9,7.6-3.7,11.2c-0.9,3.6-1.3,6.8-1.3,9.5c0,3.1,0.6,5.7,1.8,7.6c1.2,2,3.3,2.9,6.1,2.9
		c2.8,0,5.7-0.9,8.7-2.6c2.9-1.8,5.6-3.9,8.1-6.3c2.4-2.4,4.6-4.9,6.3-7.3c1.8-2.4,2.9-4.4,3.4-5.7l7.8-21.6
		C204.7,64.7,205.4,62.5,205.8,61.2z"/>
	<path id="XMLID_24_" d="M240.5,50.7l0.6-2.1h23.2l-6,18.1h0.3c9.5-12.6,18.5-18.9,26.9-18.9c4.1,0,7.4,1.1,9.8,3.3
		c2.4,2.2,3.6,4.9,3.6,8.1c0,1.7-0.3,3.3-0.8,4.9c-0.5,1.6-1.2,3.5-2,5.8l-9.5,27.2c-0.6,1.7-1.1,3.3-1.6,4.9
		c-0.5,1.6-0.7,3.2-0.7,4.8c0,1.2,0.2,2.3,0.7,3.2c0.5,1,1.5,1.5,3.1,1.5c1.8,0,3.4-0.5,4.8-1.5c1.5-1,2.8-2.2,4-3.5
		c1.2-1.4,2.3-2.8,3.2-4.3c0.9-1.5,1.6-2.8,2.1-3.9l1.6,0.7c-0.5,1-1.2,2.3-2.1,3.9s-2,3.2-3.5,4.8c-1.4,1.6-3.2,2.9-5.2,4
		c-2.1,1.1-4.5,1.7-7.3,1.7c-3.1,0-5.8-0.7-7.9-2.1c-2.2-1.4-3.2-3.6-3.2-6.8c0-1.3,0.2-2.6,0.5-4c0.3-1.4,0.8-2.8,1.2-4.4
		l12.3-35.1c0.8-2.3,1.2-4.3,1.2-5.9c0-1.3-0.4-2.5-1.2-3.7c-0.8-1.2-2.3-1.8-4.5-1.8c-2.2,0-4.7,0.8-7.5,2.4
		c-2.8,1.6-5.7,3.8-8.5,6.6c-2.8,2.8-5.5,6.1-8,9.8c-2.5,3.8-4.5,7.9-6.1,12.3l-11,30.7h-10.1l21.1-60.9H240.5z"/>
	<path id="XMLID_26_" d="M350.9,34.2l-5.3,14.4h16l-0.6,2.1h-16l-16.7,46.7c-0.5,1.5-1,3-1.5,4.6c-0.5,1.6-0.7,3.1-0.7,4.7
		c0,1.5,0.4,2.6,1.1,3.5c0.7,0.9,1.9,1.3,3.6,1.3c1.8,0,3.4-0.5,5-1.6c1.6-1.1,3-2.3,4.3-3.7c1.3-1.4,2.3-2.9,3.2-4.3
		c0.9-1.5,1.5-2.6,1.9-3.5L347,99c-0.4,0.8-1,2-1.9,3.6s-2.1,3.2-3.5,4.8c-1.5,1.6-3.3,3-5.5,4.2c-2.2,1.2-4.8,1.8-7.9,1.8
		c-3.7,0-6.5-0.9-8.4-2.7c-1.9-1.8-2.8-4-2.8-6.5c0-2,0.4-4.2,1.1-6.7s1.5-4.8,2.3-6.8l14.4-39.9h-13.2l0.6-2.1h13.2l5.3-14.4H350.9
		z"/>
	<path id="XMLID_28_" d="M363.1,59.9c0.6-2.2,1.4-4.2,2.6-6.2c1.1-2,2.5-3.6,4.3-5c1.7-1.4,3.9-2.1,6.5-2.1c3.1,0,5.8,0.8,7.9,2.4
		c2.1,1.6,3.8,3.6,5,6.1c1.2,2.4,2.1,5.1,2.6,7.9c0.5,2.8,0.8,5.5,0.8,7.9c0,6.5-0.4,12-1.1,16.7c-0.7,4.7-1.4,8.5-2.1,11.7h0.3
		l22.5-40.5c0.8-1.5,1.6-2.9,2.4-4.4c0.8-1.5,1.8-2.8,2.9-3.9c1.1-1.1,2.3-2.1,3.7-2.8c1.4-0.7,3.1-1.1,4.9-1.1c2.3,0,4,0.6,4.9,1.8
		c0.9,1.2,1.4,2.5,1.4,4c0,1.9-0.6,3.4-1.8,4.6s-2.7,1.8-4.7,1.8c-1.9,0-2.8-0.9-2.8-2.6c0-1.1,0.3-1.9,0.8-2.4
		c0.5-0.5,0.8-1.2,0.8-2.1c0-1.5-0.7-2.1-2.1-1.9c-1.2,0.1-2.4,1-3.8,2.6c-1.4,1.6-3.1,4.3-5.3,8.1l-26.7,48.5l-8.5,15.9
		c-1.7,3.1-3.4,6.2-5.2,9.1c-1.8,2.9-3.7,5.5-5.8,7.8c-2.1,2.3-4.2,4.1-6.5,5.4c-2.2,1.4-4.6,2.1-7,2.1c-3.7,0-6.7-0.9-9-2.7
		c-2.3-1.8-3.5-4.3-3.5-7.4c0-2.5,0.7-4.2,2.2-5.1c1.5-0.8,3-1.2,4.7-1.2c1.3,0,2.3,0.3,3.1,1c0.8,0.6,1.2,1.5,1.2,2.7
		c0,0.9-0.1,1.5-0.2,2c-0.1,0.4-0.3,0.9-0.5,1.3c-0.2,0.4-0.4,0.9-0.5,1.5c-0.1,0.5-0.2,1.3-0.2,2.3c0,1.1,0.5,2,1.4,2.6
		c0.9,0.7,2.1,1,3.6,1c2.7,0,5.6-1.8,8.6-5.3c3-3.5,5.7-8.1,8.2-13.9c2.5-5.7,4.6-12.3,6.2-19.7c1.6-7.4,2.4-15,2.4-22.7
		c0-7.6-0.2-13.9-0.6-18.6c-0.4-4.8-0.9-8.5-1.5-11.2c-0.6-2.7-1.3-4.5-2.1-5.4c-0.8-0.9-1.6-1.4-2.5-1.4c-1.8,0-3.3,0.7-4.6,2
		c-1.3,1.3-2.3,2.9-3.2,4.8c-0.9,1.9-1.6,3.8-2.1,5.7c-0.5,2-1,3.6-1.2,4.8l-2.1-0.6C362,63.9,362.5,62.1,363.1,59.9z"/>
</g>
</svg>
